Coordinates
version=1
nRows=65
nColumns=12
inDegrees=yes

Units are S.I. units (second, meters, Newtons, ...)
Angles are in degrees

endheader
time	SC_y	SC_z	SC_x	AC_y	AC_z	AC_x	GH_y	GH_z	GH_yy	EL_x	PS_y
       0.0              -33.18          13.89           40.6          35.26         0.5579          -13.5         -47.47          86.76         -136.0          115.0          33.25
   0.03994              -33.18           13.9          40.59          35.26         0.5573          -13.5         -47.49          86.75         -136.0          114.9          33.25
   0.07988              -33.18           13.9          40.59          35.26         0.5566          -13.5          -47.5          86.74         -135.9          114.9          33.25
    0.1198              -33.17           13.9          40.58          35.26         0.5559          -13.5         -47.51          86.72         -135.9          114.9          33.25
    0.1598              -33.17           13.9          40.58          35.26         0.5552          -13.5         -47.53          86.71         -135.9          114.9          33.25
    0.1997              -33.17          13.91          40.57          35.26         0.5544          -13.5         -47.54          86.69         -135.9          114.9          33.25
    0.2396              -33.16          13.91          40.57          35.26         0.5535         -13.49         -47.56          86.67         -135.8          114.9          33.25
    0.2796              -33.16          13.91          40.56          35.26         0.5526         -13.49         -47.58          86.65         -135.8          114.9          33.26
    0.3195              -33.16          13.91          40.56          35.26         0.5516         -13.49          -47.6          86.63         -135.8          114.9          33.26
    0.3594              -33.15          13.92          40.55          35.26         0.5506         -13.49         -47.62          86.61         -135.7          114.9          33.26
    0.3994              -33.15          13.92          40.54          35.26         0.5495         -13.49         -47.64          86.59         -135.7          114.9          33.26
    0.4393              -33.14          13.92          40.53          35.25         0.5483         -13.49         -47.67          86.56         -135.6          114.9          33.26
    0.4793              -33.14          13.93          40.53          35.25          0.547         -13.49         -47.69          86.53         -135.6          114.8          33.27
    0.5192              -33.13          13.93          40.52          35.25         0.5456         -13.49         -47.72           86.5         -135.5          114.8          33.27
    0.5591              -33.12          13.94          40.51          35.25          0.544         -13.49         -47.75          86.47         -135.5          114.8          33.27
    0.5991              -33.12          13.94           40.5          35.25         0.5424         -13.48         -47.78          86.44         -135.4          114.8          33.27
     0.639              -33.11          13.95          40.48          35.25         0.5406         -13.48         -47.82           86.4         -135.3          114.8          33.28
     0.679               -33.1          13.95          40.47          35.25         0.5386         -13.48         -47.86          86.36         -135.2          114.7          33.28
    0.7189              -33.09          13.96          40.46          35.25         0.5365         -13.48          -47.9          86.31         -135.2          114.7          33.29
    0.7588              -33.08          13.97          40.44          35.24         0.5342         -13.48         -47.95          86.26         -135.1          114.7          33.29
    0.7988              -33.07          13.97          40.43          35.24         0.5316         -13.47          -48.0          86.21         -135.0          114.7           33.3
    0.8387              -33.06          13.98          40.41          35.24         0.5288         -13.47         -48.06          86.15         -134.9          114.6           33.3
    0.8787              -33.04          13.99          40.39          35.24         0.5256         -13.47         -48.12          86.08         -134.7          114.6          33.31
    0.9186              -33.03           14.0          40.37          35.24         0.5222         -13.46         -48.19          86.01         -134.6          114.6          33.31
    0.9585              -33.01          14.01          40.34          35.23         0.5183         -13.46         -48.26          85.93         -134.5          114.5          33.32
    0.9985              -32.99          14.03          40.31          35.23         0.5141         -13.46         -48.35          85.84         -134.3          114.5          33.33
     1.038              -32.97          14.04          40.28          35.23         0.5092         -13.45         -48.44          85.74         -134.1          114.4          33.34
     1.078              -32.95          14.06          40.25          35.22         0.5038         -13.45         -48.55          85.62         -133.9          114.4          33.35
     1.118              -32.92          14.07          40.21          35.22         0.4977         -13.44         -48.67           85.5         -133.6          114.3          33.36
     1.158              -32.89          14.09          40.16          35.21         0.4908         -13.43         -48.81          85.35         -133.4          114.2          33.37
     1.198              -32.86          14.12          40.11          35.21         0.4829         -13.43         -48.97          85.18         -133.1          114.2          33.39
     1.238              -32.82          14.15          40.05           35.2         0.4738         -13.42         -49.15          84.99         -132.7          114.1           33.4
     1.278              -32.77          14.18          39.98          35.19         0.4633         -13.41         -49.36          84.77         -132.3          114.0          33.42
     1.318              -32.72          14.21          39.91          35.18         0.4511          -13.4         -49.61          84.51         -131.8          113.8          33.45
     1.358              -32.66          14.26          39.81          35.17         0.4369         -13.38         -49.89          84.21         -131.3          113.7          33.47
     1.398              -32.58          14.31          39.71          35.16         0.4201         -13.37         -50.23          83.86         -130.6          113.5           33.5
     1.438               -32.5          14.37          39.58          35.15         0.4001         -13.35         -50.62          83.44         -129.8          113.3          33.54
     1.478              -32.39          14.44          39.42          35.13         0.3762         -13.32          -51.1          82.93         -128.9          113.0          33.59
     1.518              -32.27          14.52          39.23          35.11         0.3472          -13.3         -51.68          82.32         -127.8          112.7          33.64
     1.558              -32.11          14.63          39.01          35.08         0.3118         -13.26         -52.39          81.58         -126.4          112.3          33.71
     1.598              -31.93          14.76          38.72          35.05         0.2682         -13.22         -53.26          80.66         -124.7          111.9          33.79
     1.637              -31.69          14.92          38.37          35.01         0.2137         -13.17         -54.35          79.51         -122.6          111.3          33.89
     1.677              -31.39          15.13          37.93          34.96         0.1451          -13.1         -55.72          78.06         -119.9          110.6          34.02
     1.717              -31.01          15.39          37.36           34.9        0.05794         -13.02         -57.46          76.22         -116.5          109.6          34.19
     1.757              -30.53          15.72          36.64          34.82       -0.05366         -12.91         -59.69          73.87         -112.1          108.5           34.4
     1.797              -29.91          16.15          35.72          34.72        -0.1969         -12.78         -62.55          70.85         -106.5          106.9          34.67
     1.837              -29.11          16.69          34.53          34.58        -0.3798          -12.6          -66.2           67.0         -99.38          105.0          35.01
     1.877              -28.11          17.38          33.05          34.42        -0.6098         -12.38         -70.79          62.15          -90.4          102.6          35.44
     1.917               -26.9          18.22          31.23          34.22        -0.8902         -12.11         -76.39          56.24         -79.45          99.57          35.97
     1.957              -25.49          19.19          29.13          33.98         -1.215          -11.8         -82.88          49.39         -66.77          96.12          36.58
     1.997              -23.96          20.24          26.86          33.73         -1.567         -11.47         -89.91          41.97         -53.03          92.39          37.24
     2.037              -22.43          21.29          24.58          33.47         -1.919         -11.13         -96.93          34.56         -39.29          88.65           37.9
     2.077              -21.02          22.26          22.48          33.24         -2.244         -10.82         -103.4          27.71          -26.6           85.2          38.51
     2.117               -19.8           23.1          20.67          33.04         -2.524         -10.55         -109.0           21.8         -15.66          82.22          39.04
     2.157               -18.8          23.78          19.18          32.87         -2.754         -10.33         -113.6          16.95         -6.676          79.78          39.47
     2.197              -18.01          24.33           18.0          32.74         -2.937         -10.16         -117.3          13.09         0.4678          77.84          39.82
     2.237              -17.39          24.76          17.07          32.64          -3.08         -10.02         -120.1          10.07           6.06          76.31          40.09
     2.277               -16.9          25.09          16.35          32.55         -3.192         -9.913         -122.4          7.721          10.42          75.13           40.3
     2.316              -16.53          25.35          15.79          32.49         -3.279          -9.83         -124.1          5.883          13.82           74.2          40.46
     2.356              -16.23          25.55          15.34          32.44         -3.348         -9.764         -125.5          4.438           16.5          73.47          40.59
     2.396              -15.99          25.72          14.99           32.4         -3.402         -9.712         -126.6           3.29          18.63           72.9          40.69
     2.436               -15.8          25.85          14.71          32.37         -3.446         -9.671         -127.4          2.369          20.33          72.43          40.77
     2.476              -15.65          25.95          14.48          32.35         -3.481         -9.637         -128.1          1.624          21.71          72.06          40.84
     2.516              -15.52          26.04          14.29          32.33          -3.51         -9.609         -128.7          1.013          22.84          71.75           40.9
     2.556              -15.42          26.11          14.14          32.31         -3.534         -9.586         -129.2         0.5085          23.78           71.5          40.94
